<svg width="15" height="16" viewBox="0 0 15 16" fill="none" xmlns="http://www.w3.org/2000/svg">
<g id="store-verified-shopping-svgrepo-com 1">
<g id="Group">
<path id="Vector" d="M12.4375 7.10002L12.2 7.68752C12.125 7.88752 12.125 8.10002 12.2 8.30002L12.4375 8.88752C12.575 9.23752 12.4625 9.63752 12.15 9.86252L11.625 10.225C11.45 10.35 11.3375 10.5375 11.2875 10.7375L11.175 11.3625C11.1 11.7375 10.7875 12.0125 10.4125 12.025L9.77505 12.05C9.56255 12.0625 9.36255 12.15 9.21255 12.3L8.77505 12.7625C8.51255 13.0375 8.10005 13.1 7.77505 12.9125L7.22505 12.5875C7.03755 12.475 6.82505 12.45 6.61255 12.5L5.98755 12.65C5.62505 12.7375 5.23755 12.5625 5.06255 12.225L4.77505 11.65C4.67505 11.4625 4.51255 11.3125 4.31255 11.25L3.71255 11.05C3.35005 10.925 3.12505 10.575 3.16255 10.2L3.22505 9.56252C3.25005 9.35002 3.18755 9.13752 3.05005 8.97502L2.65005 8.47502C2.41255 8.17502 2.41255 7.76252 2.65005 7.46252L3.05005 6.96252C3.18755 6.80002 3.25005 6.58752 3.22505 6.37502L3.16255 5.73752C3.12505 5.36252 3.35005 5.01252 3.71255 4.88752L4.31255 4.68752C4.51255 4.62502 4.67505 4.47502 4.77505 4.28752L5.06255 3.71252C5.23755 3.37502 5.61255 3.20002 5.98755 3.28752L6.61255 3.43752C6.81255 3.48752 7.03755 3.46252 7.22505 3.35002L7.77505 3.02502C8.10005 2.83752 8.51255 2.88752 8.77505 3.17502L9.21255 3.63752C9.36255 3.78752 9.56255 3.88752 9.77505 3.88752L10.4125 3.91252C10.7875 3.92502 11.1125 4.20002 11.175 4.57502L11.2875 5.20002C11.325 5.41252 11.45 5.60002 11.625 5.71252L12.15 6.07502C12.4625 6.35002 12.5875 6.75002 12.4375 7.10002Z" fill="#00D566"/>
<g id="Group_2" opacity="0.15">
<path id="Vector_2" d="M5.42505 12.1875L5.13755 11.6125C5.03755 11.425 4.87505 11.275 4.67505 11.2125L4.07505 11.0125C3.71255 10.8875 3.48755 10.5375 3.52505 10.1625L3.58755 9.525C3.61255 9.3125 3.55005 9.1 3.41255 8.9375L3.01255 8.4375C2.77505 8.1375 2.77505 7.725 3.01255 7.425L3.41255 6.925C3.55005 6.7625 3.61255 6.55 3.58755 6.3375L3.52505 5.7C3.48755 5.325 3.71255 4.975 4.07505 4.85L4.67505 4.65C4.87505 4.5875 5.03755 4.4375 5.13755 4.25L5.42505 3.675C5.52505 3.475 5.70005 3.3375 5.88755 3.275C5.55005 3.225 5.21255 3.4 5.06255 3.7125L4.77505 4.2875C4.67505 4.475 4.51255 4.625 4.31255 4.6875L3.71255 4.8875C3.35005 5.0125 3.12505 5.3625 3.16255 5.7375L3.22505 6.375C3.25005 6.5875 3.18755 6.8 3.05005 6.9625L2.65005 7.4625C2.41255 7.7625 2.41255 8.175 2.65005 8.475L3.05005 8.975C3.18755 9.1375 3.25005 9.35 3.22505 9.5625L3.16255 10.2C3.12505 10.575 3.35005 10.925 3.71255 11.05L4.31255 11.25C4.51255 11.3125 4.67505 11.4625 4.77505 11.65L5.06255 12.225C5.23755 12.5625 5.61255 12.7375 5.98755 12.65L6.06255 12.6375C5.78755 12.5875 5.55005 12.4375 5.42505 12.1875Z" fill="black"/>
<path id="Vector_3" d="M7.575 3.31203L8.125 2.98703C8.175 2.96203 8.225 2.93703 8.275 2.92453C8.1 2.89953 7.9125 2.93703 7.7625 3.02453L7.2125 3.34953C7.1625 3.37453 7.1125 3.39953 7.0625 3.41203C7.2375 3.43703 7.4125 3.41203 7.575 3.31203Z" fill="black"/>
<path id="Vector_4" d="M10.1251 11.9995C10.0626 11.9995 10.0001 12.012 9.95007 12.0245L10.4001 11.9995C10.4626 11.9995 10.5126 11.987 10.5751 11.9745L10.1251 11.9995Z" fill="black"/>
<path id="Vector_5" d="M8.12507 12.862L7.57507 12.537C7.38757 12.4245 7.17507 12.3995 6.96257 12.4495L6.88757 12.462C7.00007 12.4745 7.10007 12.512 7.20007 12.562L7.75007 12.887C7.96257 13.012 8.20007 13.0245 8.42507 12.9495C8.32507 12.9495 8.22507 12.9245 8.12507 12.862Z" fill="black"/>
</g>
<path id="Vector_6" d="M5.50024 7.19955L7.06274 8.98705L10.2627 6.41205" fill="#00D566"/>
<path id="Vector_7" d="M6.68758 9.91249C6.51258 9.91249 6.33758 9.83749 6.21258 9.69999L4.65008 7.91249C4.42508 7.64999 4.45008 7.26249 4.70008 7.02499C4.96258 6.79999 5.35008 6.82499 5.58758 7.07499L6.76258 8.41249L9.50008 6.21249C9.76258 5.99999 10.1626 6.03749 10.3751 6.31249C10.5876 6.58749 10.5501 6.97499 10.2751 7.18749L7.07508 9.77499C6.96258 9.86249 6.82508 9.91249 6.68758 9.91249Z" fill="white"/>
</g>
</g>
</svg>
