<svg width="25" height="25" viewBox="0 0 25 25" fill="none" xmlns="http://www.w3.org/2000/svg">
<g id="whatsapp-whats-app-svgrepo-com 1" clip-path="url(#clip0_1_148)">
<path id="Vector" d="M13.25 1.25C7.475 1.25 2.75 5.975 2.75 11.75C2.75 14.3 3.725 16.7 5.225 18.5L3.5 23.75L8.975 21.35C10.25 21.95 11.75 22.25 13.25 22.25C19.025 22.25 23.75 17.525 23.75 11.75C23.75 5.975 19.025 1.25 13.25 1.25Z" stroke="black" stroke-width="1.5" stroke-miterlimit="10" stroke-linecap="round" stroke-linejoin="round"/>
<g id="Page-1">
<g id="Whatsapp">
<path id="Stroke-28" d="M19.025 15.575C19.25 14.9 19.25 14.375 19.175 14.225C19.1 14.075 18.95 14.075 18.65 13.925C18.35 13.775 17 13.1 16.775 13.025C16.55 12.95 16.25 12.95 16.1 13.25C15.8 13.625 15.575 14 15.35 14.225C15.2 14.375 14.9 14.45 14.675 14.3C14.375 14.15 13.475 13.85 12.425 12.95C11.6 12.2 11.075 11.3 10.85 11C10.7 10.7 10.85 10.55 11 10.4C11.15 10.25 11.3 10.1 11.45 9.95C11.6 9.8 11.675 9.725 11.75 9.5C11.825 9.35 11.75 9.125 11.675 8.975C11.6 8.825 11.075 7.475 10.85 6.95C10.7 6.5 10.55 6.5 10.25 6.5C10.175 6.5 10.025 6.5 9.95 6.5C9.575 6.5 9.2 6.575 8.975 6.875C8.675 7.175 8 7.85 8 9.2C8 10.55 8.975 11.9 9.125 12.05C9.275 12.2 11.075 15.05 13.85 16.25C16.025 17.15 16.7 17.075 17.15 17C17.9 16.775 18.8 16.25 19.025 15.575Z" stroke="black" stroke-width="1.5"/>
</g>
</g>
</g>
<defs>
<clipPath id="clip0_1_148">
<rect width="24" height="24" fill="white" transform="translate(0.5 0.5)"/>
</clipPath>
</defs>
</svg>
